<?xml version="1.0" encoding="UTF-8" standalone="no"?>
<!-- Created with Inkscape (http://www.inkscape.org/) -->

<svg
   xmlns:dc="http://purl.org/dc/elements/1.1/"
   xmlns:cc="http://creativecommons.org/ns#"
   xmlns:rdf="http://www.w3.org/1999/02/22-rdf-syntax-ns#"
   xmlns:svg="http://www.w3.org/2000/svg"
   xmlns="http://www.w3.org/2000/svg"
   xmlns:sodipodi="http://sodipodi.sourceforge.net/DTD/sodipodi-0.dtd"
   xmlns:inkscape="http://www.inkscape.org/namespaces/inkscape"
   width="210mm"
   height="297mm"
   viewBox="0 0 744.09448819 1052.3622047"
   id="svg2"
   version="1.1"
   inkscape:version="0.91 r13725"
   sodipodi:docname="logo.svg">
  <defs
     id="defs4" />
  <sodipodi:namedview
     id="base"
     pagecolor="#ffffff"
     bordercolor="#666666"
     borderopacity="1.0"
     inkscape:pageopacity="0.0"
     inkscape:pageshadow="2"
     inkscape:zoom="0.53988823"
     inkscape:cx="7.1733031"
     inkscape:cy="520"
     inkscape:document-units="px"
     inkscape:current-layer="layer1"
     showgrid="true"
     inkscape:window-width="1366"
     inkscape:window-height="705"
     inkscape:window-x="-8"
     inkscape:window-y="-8"
     inkscape:window-maximized="1">
    <inkscape:grid
       type="xygrid"
       id="grid3615" />
  </sodipodi:namedview>
  <metadata
     id="metadata7">
    <rdf:RDF>
      <cc:Work
         rdf:about="">
        <dc:format>image/svg+xml</dc:format>
        <dc:type
           rdf:resource="http://purl.org/dc/dcmitype/StillImage" />
        <dc:title />
      </cc:Work>
    </rdf:RDF>
  </metadata>
  <g
     inkscape:label="Layer 1"
     inkscape:groupmode="layer"
     id="layer1">
    <rect
       style="fill:#000080;fill-opacity:0.94082839"
       id="rect3336"
       width="584.49237"
       height="404.55179"
       x="85.714287"
       y="273.52469" />
    <rect
       style="fill:#ff0000;fill-opacity:0.94082839"
       id="rect3342"
       width="294.5054"
       height="403.78729"
       x="377.85599"
       y="272.57117" />
    <path
       sodipodi:type="star"
       style="fill:#241f1c;fill-opacity:0.94082839"
       id="path3593"
       sodipodi:sides="5"
       sodipodi:cx="57.419292"
       sodipodi:cy="231.82198"
       sodipodi:r1="67.14193"
       sodipodi:r2="33.570965"
       sodipodi:arg1="0.42662749"
       sodipodi:arg2="1.054946"
       inkscape:flatsided="false"
       inkscape:rounded="0"
       inkscape:randomized="0"
       d="M 118.54305,259.6055 73.979,261.02447 49.883868,298.53971 34.7633,256.59526 -8.3616178,245.27228 26.857411,217.93021 l -2.557533,-44.51323 36.887126,25.04613 41.544276,-16.1877 -12.421533,42.82142 z"
       inkscape:transform-center-x="-1.4532279"
       inkscape:transform-center-y="-3.9287418"
       transform="matrix(0.68991065,-0.47332305,0.5360309,0.48608672,-69.3462,153.42119)" />
    <path
       sodipodi:type="star"
       style="fill:#241f1c;fill-opacity:0.94082839"
       id="path3595"
       sodipodi:sides="5"
       sodipodi:cx="209.30258"
       sodipodi:cy="179.95941"
       sodipodi:r1="62.236206"
       sodipodi:r2="31.118103"
       sodipodi:arg1="0.93324753"
       sodipodi:arg2="1.5615661"
       inkscape:flatsided="false"
       inkscape:rounded="0"
       inkscape:randomized="0"
       d="m 246.34729,229.96976 -36.75749,-18.89357 -36.40245,19.56888 6.61017,-40.79688 -29.86008,-28.57367 40.84279,-6.32028 17.9479,-37.22838 18.63207,36.89072 40.9525,5.56527 -29.32755,29.12001 z"
       inkscape:transform-center-x="0.13307256"
       inkscape:transform-center-y="-4.4479933"
       transform="matrix(0.74964562,0,0,0.77035534,33.833025,99.272286)" />
    <path
       sodipodi:type="star"
       style="fill:#241f1c;fill-opacity:0.94082839"
       id="path3597"
       sodipodi:sides="5"
       sodipodi:cx="296.35764"
       sodipodi:cy="246.63988"
       sodipodi:r1="59.646576"
       sodipodi:r2="29.823288"
       sodipodi:arg1="0.93971694"
       sodipodi:arg2="1.5680355"
       inkscape:flatsided="false"
       inkscape:rounded="0"
       inkscape:randomized="0"
       d="m 331.5501,294.79799 -35.11013,-18.33494 -35.00835,18.52853 6.58793,-39.05753 -28.43985,-27.56929 39.1817,-5.80394 17.43156,-35.56729 17.62769,35.4705 39.21315,5.5875 -28.2872,27.72591 z"
       inkscape:transform-center-x="0.039255694"
       inkscape:transform-center-y="-4.969337"
       transform="matrix(0.77143802,0,0,0.87994555,51.054341,24.30164)" />
    <path
       sodipodi:type="star"
       style="fill:#241f1c;fill-opacity:0.94082839"
       id="path3599"
       sodipodi:sides="5"
       sodipodi:cx="542.70496"
       sodipodi:cy="176.25494"
       sodipodi:r1="60.757832"
       sodipodi:r2="30.378918"
       sodipodi:arg1="0.65569563"
       sodipodi:arg2="1.2840142"
       inkscape:flatsided="false"
       inkscape:rounded="0"
       inkscape:randomized="0"
       d="m 590.86307,213.29965 -39.56491,-7.90649 -28.94314,28.11032 -4.70671,-40.07171 -35.67842,-18.83999 36.65601,-16.85919 6.89265,-39.75407 27.36137,29.65216 39.93832,-5.72938 -19.74575,35.18523 z"
       inkscape:transform-center-x="1.6593557"
       inkscape:transform-center-y="-2.953116"
       transform="matrix(0.77079302,0.13643476,-0.13517293,0.76366422,-26.121,24.915451)" />
    <path
       sodipodi:type="star"
       style="fill:#241f1c;fill-opacity:0.94082839"
       id="path3601"
       sodipodi:sides="5"
       sodipodi:cx="24.079058"
       sodipodi:cy="728.22107"
       sodipodi:r1="120.20992"
       sodipodi:r2="60.104961"
       sodipodi:arg1="0.5880026"
       sodipodi:arg2="1.2163211"
       inkscape:flatsided="false"
       inkscape:rounded="0"
       inkscape:randomized="0"
       d="m 124.09976,794.90154 -79.158374,-10.31231 -53.3711247,59.36258 -14.6536973,-78.47077 -72.949749,-32.41491 70.101891,-38.18529 8.285699,-79.3961 57.979049,54.87096 78.070596,-16.65457 -34.268871,72.09741 z"
       inkscape:transform-center-x="-51.624758"
       inkscape:transform-center-y="225.87017"
       transform="matrix(0.41022715,0.17158279,-0.19816966,0.47379211,180.71726,87.139239)" />
    <path
       sodipodi:type="star"
       style="fill:#241f1c;fill-opacity:0.94082839"
       id="path3603"
       sodipodi:sides="5"
       sodipodi:cx="37.044716"
       sodipodi:cy="322.58148"
       sodipodi:r1="66.808975"
       sodipodi:r2="33.404488"
       sodipodi:arg1="0.76579283"
       sodipodi:arg2="1.3941114"
       inkscape:flatsided="false"
       inkscape:rounded="0"
       inkscape:randomized="0"
       d="M 85.202834,368.88736 42.916125,355.46592 7.8868812,382.69188 7.5841209,338.32737 -29.133935,313.42587 12.965658,299.42854 25.301895,256.8126 l 26.321739,35.71368 44.342271,-1.43659 -25.831864,36.0696 z"
       inkscape:transform-center-x="0.46342423"
       inkscape:transform-center-y="-4.5842993"
       transform="matrix(0.71487753,0.09080991,-0.10483686,0.96393544,57.429155,6.3342339)" />
    <path
       sodipodi:type="star"
       style="fill:#241f1c;fill-opacity:0.94082839"
       id="path3605"
       sodipodi:sides="5"
       sodipodi:cx="31.487988"
       sodipodi:cy="548.5542"
       sodipodi:r1="74.504997"
       sodipodi:r2="37.252499"
       sodipodi:arg1="0.96210702"
       sodipodi:arg2="1.5904256"
       inkscape:flatsided="false"
       inkscape:rounded="0"
       inkscape:randomized="0"
       d="m 74.089398,609.67796 -43.332603,-23.87844 -44.236401,22.15931 9.3192364,-48.5906 -34.7445544,-35.22371 49.092208,-6.1522 22.763085,-43.92876 21.021417,44.78832 48.812914,8.07425 -36.100257,33.83291 z"
       inkscape:transform-center-x="-0.31602885"
       inkscape:transform-center-y="-5.2229144"
       transform="matrix(0.69933289,0,0,0.78147039,23.495038,101.74468)" />
    <path
       sodipodi:type="star"
       style="fill:#241f1c;fill-opacity:0.94082839"
       id="path3607"
       sodipodi:sides="5"
       sodipodi:cx="579.74963"
       sodipodi:cy="794.90149"
       sodipodi:r1="125.58373"
       sodipodi:r2="62.791866"
       sodipodi:arg1="0.92139558"
       sodipodi:arg2="1.5497141"
       inkscape:flatsided="false"
       inkscape:rounded="0"
       inkscape:randomized="0"
       d="m 655.69128,894.92219 -74.61795,-37.24279 -72.98178,40.35498 12.36178,-82.47454 -60.93247,-56.93942 82.25795,-13.72928 35.32344,-75.54548 38.47642,73.98938 82.76356,10.24975 -58.47821,59.45723 z"
       inkscape:transform-center-x="0.30415951"
       inkscape:transform-center-y="-5.2182746"
       transform="matrix(0.37178547,0,0,0.46544138,-172.5289,255.93156)" />
    <path
       sodipodi:type="star"
       style="fill:#241f1c;fill-opacity:0.94082839"
       id="path3609"
       sodipodi:sides="5"
       sodipodi:cx="51.862587"
       sodipodi:cy="930.11469"
       sodipodi:r1="58.572823"
       sodipodi:r2="29.286411"
       sodipodi:arg1="0.96525166"
       sodipodi:arg2="1.5935702"
       inkscape:flatsided="false"
       inkscape:rounded="0"
       inkscape:randomized="0"
       d="M 85.202822,978.2728 51.19568,959.3935 16.364195,976.70481 23.810692,938.52807 -3.416861,910.75085 35.19247,906.03563 53.196401,871.55705 69.611783,906.81962 107.96638,913.28791 79.502311,939.7966 Z"
       inkscape:transform-center-x="-0.34362843"
       inkscape:transform-center-y="-4.9290021"
       transform="matrix(0.83370611,0,0,0.94792985,601.40825,-645.50164)" />
    <path
       sodipodi:type="star"
       style="fill:#241f1c;fill-opacity:0.94082839"
       id="path3611"
       sodipodi:sides="5"
       sodipodi:cx="446.38867"
       sodipodi:cy="252.19656"
       sodipodi:r1="30.152205"
       sodipodi:r2="15.076103"
       sodipodi:arg1="0.82884906"
       sodipodi:arg2="1.4571676"
       inkscape:flatsided="false"
       inkscape:rounded="0"
       inkscape:randomized="0"
       d="m 466.76326,274.42339 -18.66519,-7.24795 -16.55227,11.26697 1.12534,-19.99139 -15.83045,-12.26045 19.36069,-5.10742 6.7685,-18.84435 10.84023,16.83484 20.01362,0.61401 -12.66106,15.51191 z"
       inkscape:transform-center-x="-0.025588236"
       inkscape:transform-center-y="-4.8768514"
       transform="matrix(1.6091255,0.16531784,-0.18640161,1.814345,-215.90938,-298.94263)" />
    <path
       sodipodi:type="star"
       style="fill:#241f1c;fill-opacity:0.94082839"
       id="path3613"
       sodipodi:sides="5"
       sodipodi:cx="325.99341"
       sodipodi:cy="950.48926"
       sodipodi:r1="66.911598"
       sodipodi:r2="33.455799"
       sodipodi:arg1="0.84415399"
       sodipodi:arg2="1.4724725"
       inkscape:flatsided="false"
       inkscape:rounded="0"
       inkscape:randomized="0"
       d="m 370.44705,1000.4996 -41.16944,-16.71613 -37.10994,24.43773 3.17594,-44.32 -34.7093,-27.74197 43.13227,-10.67515 15.65842,-41.58324 23.48128,37.72243 44.38673,2.04211 -28.62005,33.98889 z"
       inkscape:transform-center-x="-0.28102989"
       inkscape:transform-center-y="-5.2378894"
       transform="matrix(0.79047625,0.08715476,-0.09163113,0.83107609,380.95491,-584.46618)" />
    <path
       sodipodi:type="star"
       style="fill:#241f1c;fill-opacity:0.94082839"
       id="path3617"
       sodipodi:sides="5"
       sodipodi:cx="-171.90399"
       sodipodi:cy="520.10431"
       sodipodi:r1="144.22205"
       sodipodi:r2="72.111023"
       sodipodi:arg1="0.98279372"
       sodipodi:arg2="1.6111123"
       inkscape:flatsided="false"
       inkscape:rounded="0"
       inkscape:randomized="0"
       d="m -91.903994,640.1043 -82.906436,-47.94756 -86.49898,41.11413 19.98135,-93.66532 -65.83152,-69.56046 95.25559,-9.94078 45.81287,-84.10486 38.88984,87.52158 94.145425,17.5808 -71.220345,64.03209 z"
       inkscape:transform-center-x="-0.71597583"
       inkscape:transform-center-y="-3.7688031"
       transform="matrix(0.39858921,0,0,0.31270079,163.49114,554.78176)" />
    <path
       sodipodi:type="star"
       style="fill:#241f1c;fill-opacity:0.94082839"
       id="path3619"
       sodipodi:sides="5"
       sodipodi:cx="-295.29599"
       sodipodi:cy="756.06665"
       sodipodi:r1="169.70563"
       sodipodi:r2="84.852814"
       sodipodi:arg1="0.78539816"
       sodipodi:arg2="1.4137167"
       inkscape:flatsided="false"
       inkscape:rounded="0"
       inkscape:randomized="0"
       d="m -175.29599,876.06665 -106.7261,-36.19186 -90.31864,67.40068 1.44033,-112.68645 -92.01186,-65.07018 107.61627,-33.45219 33.45219,-107.61627 65.07018,92.01186 112.68645,-1.44033 -67.40069,90.31865 z"
       inkscape:transform-center-x="0.23678926"
       inkscape:transform-center-y="-4.4057299"
       transform="matrix(0.28794386,0.04364627,-0.04103428,0.270712,659.56206,522.20281)" />
    <path
       sodipodi:type="star"
       style="fill:#241f1c;fill-opacity:0.94082839"
       id="path3621"
       sodipodi:sides="5"
       sodipodi:cx="-458.33408"
       sodipodi:cy="516.75372"
       sodipodi:r1="134.16408"
       sodipodi:r2="67.082039"
       sodipodi:arg1="0.46364761"
       sodipodi:arg2="1.0919661"
       inkscape:flatsided="false"
       inkscape:rounded="0"
       inkscape:randomized="0"
       d="m -338.33408,576.75372 -89.09253,-0.46237 -50.88882,73.13017 -27.09136,-84.87491 -85.27644,-25.79968 72.34915,-51.9932 -1.81492,-89.07526 71.8056,52.74135 84.15475,-29.25186 -27.97085,84.58916 z"
       inkscape:transform-center-x="268.81711"
       inkscape:transform-center-y="-62.559077"
       transform="matrix(0.27978693,0.14983692,-0.13864037,0.25887987,912.57313,521.28063)" />
    <path
       sodipodi:type="star"
       style="fill:#241f1c;fill-opacity:0.94082839"
       id="path3623"
       sodipodi:sides="5"
       sodipodi:cx="-420.832"
       sodipodi:cy="553.77771"
       sodipodi:r1="200"
       sodipodi:r2="100"
       sodipodi:arg1="0.92729522"
       sodipodi:arg2="1.5556137"
       inkscape:flatsided="false"
       inkscape:rounded="0"
       inkscape:randomized="0"
       d="m -300.832,713.77771 -118.4818,-60.01153 -116.6052,63.58103 20.46146,-131.22746 -96.50214,-91.25053 131.12768,-21.09151 56.9636,-119.97695 60.5799,118.1922 131.70758,17.10069 -93.68724,94.1383 z"
       inkscape:transform-center-x="0.32148514"
       inkscape:transform-center-y="-4.2917802"
       transform="matrix(0.34262429,0,0,0.235764,353.42455,590.82398)" />
    <path
       sodipodi:type="star"
       style="fill:#241f1c;fill-opacity:0.94082839"
       id="path3625"
       sodipodi:sides="5"
       sodipodi:cx="-317.16891"
       sodipodi:cy="752.69537"
       sodipodi:r1="134.16408"
       sodipodi:r2="67.082039"
       sodipodi:arg1="0.46364761"
       sodipodi:arg2="1.0919661"
       inkscape:flatsided="false"
       inkscape:rounded="0"
       inkscape:randomized="0"
       d="m -197.16892,812.69537 -89.09253,-0.46237 -50.88882,73.13017 -27.09136,-84.87491 -85.27644,-25.79968 72.34915,-51.9932 -1.81492,-89.07526 71.8056,52.74135 84.15475,-29.25186 -27.97085,84.58916 z"
       inkscape:transform-center-x="2.3988863"
       inkscape:transform-center-y="-3.1707374"
       transform="matrix(0.32480839,0.13243487,-0.10342225,0.23778506,891.36337,513.43817)" />
    <path
       sodipodi:type="star"
       style="fill:#241f1c;fill-opacity:0.94082839"
       id="path3627"
       sodipodi:sides="5"
       sodipodi:cx="751.8833"
       sodipodi:cy="714.54761"
       sodipodi:r1="84.852814"
       sodipodi:r2="42.426407"
       sodipodi:arg1="0.78539816"
       sodipodi:arg2="1.4137167"
       inkscape:flatsided="false"
       inkscape:rounded="0"
       inkscape:randomized="0"
       d="m 811.8833,774.54761 -53.36305,-18.09594 -45.15932,33.70035 0.72017,-56.34323 -46.00593,-32.53509 53.80813,-16.72609 16.7261,-53.80814 32.53509,46.00593 56.34322,-0.72016 -33.70034,45.15932 z"
       inkscape:transform-center-x="2.0048229"
       inkscape:transform-center-y="-1.7665132"
       transform="matrix(0.48875824,0,0,0.43066258,339.69568,405.40947)" />
    <path
       sodipodi:type="star"
       style="fill:#241f1c;fill-opacity:0.94082839"
       id="path3629"
       sodipodi:sides="5"
       sodipodi:cx="860"
       sodipodi:cy="512.36218"
       sodipodi:r1="141.42136"
       sodipodi:r2="70.710678"
       sodipodi:arg1="0.78539816"
       sodipodi:arg2="1.4137167"
       inkscape:flatsided="false"
       inkscape:rounded="0"
       inkscape:randomized="0"
       d="m 960,612.36218 -88.93841,-30.15989 -75.26554,56.16724 1.20027,-93.90537 L 720.31978,490.23901 810,462.36218 l 27.87683,-89.68022 54.22515,76.67655 93.90537,-1.20028 -56.16724,75.26554 z"
       inkscape:transform-center-x="1.8797957"
       inkscape:transform-center-y="-2.0704289"
       transform="matrix(0.27496622,0,0,0.30285214,474.09804,156.08926)" />
    <path
       sodipodi:type="star"
       style="fill:#241f1c;fill-opacity:0.94082839"
       id="path3631"
       sodipodi:sides="5"
       sodipodi:cx="960.02069"
       sodipodi:cy="781.62335"
       sodipodi:r1="156.20499"
       sodipodi:r2="78.102493"
       sodipodi:arg1="0.69473828"
       sodipodi:arg2="1.3230568"
       inkscape:flatsided="false"
       inkscape:rounded="0"
       inkscape:randomized="0"
       d="m 1080.0207,881.62335 -100.84825,-24.28204 -77.17537,69.31052 -8.07023,-103.41594 -89.76672,-51.98001 95.86056,-39.63253 21.69649,-101.43592 67.31532,78.92168 103.1759,-10.71084 -54.2574,88.40882 z"
       inkscape:transform-center-x="2.8552534"
       inkscape:transform-center-y="-0.94190437"
       transform="matrix(0.24122516,0,0,0.29400433,478.66777,152.25643)" />
    <path
       sodipodi:type="star"
       style="fill:#241f1c;fill-opacity:0.94082839"
       id="path3633"
       sodipodi:sides="5"
       sodipodi:cx="937.06543"
       sodipodi:cy="216.81584"
       sodipodi:r1="169.70563"
       sodipodi:r2="84.852814"
       sodipodi:arg1="0.78539816"
       sodipodi:arg2="1.4137167"
       inkscape:flatsided="false"
       inkscape:rounded="0"
       inkscape:randomized="0"
       d="m 1057.0654,336.81584 -106.72607,-36.19186 -90.31864,67.40068 1.44033,-112.68645 -92.01186,-65.07018 107.61627,-33.45219 33.45219,-107.616268 65.07018,92.011858 112.6865,-1.44033 -67.4007,90.31865 z"
       inkscape:transform-center-x="1.578968"
       inkscape:transform-center-y="-2.3891935"
       transform="matrix(0.1924704,0,0,0.29123301,536.15016,168.23197)" />
    <path
       sodipodi:type="star"
       style="fill:#241f1c;fill-opacity:0.94082839"
       id="path3635"
       sodipodi:sides="5"
       sodipodi:cx="-420"
       sodipodi:cy="152.3622"
       sodipodi:r1="172.04651"
       sodipodi:r2="86.023254"
       sodipodi:arg1="0.62024949"
       sodipodi:arg2="1.248568"
       inkscape:flatsided="false"
       inkscape:rounded="0"
       inkscape:randomized="0"
       d="m -280,252.3622 -112.75807,-18.40418 -79.0852,82.45379 -17.34075,-112.9265 L -592.04091,153.75043 -490,102.3622 l 15.51615,-113.19164 80.40549,81.16683 112.44639,-20.221406 -52.34758,101.552096 z"
       inkscape:transform-center-x="0.27728147"
       inkscape:transform-center-y="-2.2376534"
       transform="matrix(0.21995729,0.10159561,-0.06793813,0.20830904,812.6751,465.01766)" />
    <path
       sodipodi:type="star"
       style="fill:#241f1c;fill-opacity:0.94082839"
       id="path3637"
       sodipodi:sides="5"
       sodipodi:cx="-367.74213"
       sodipodi:cy="531.2384"
       sodipodi:r1="266.83328"
       sodipodi:r2="133.41664"
       sodipodi:arg1="0.22679885"
       sodipodi:arg2="0.85511738"
       inkscape:flatsided="false"
       inkscape:rounded="0"
       inkscape:randomized="0"
       d="m -107.74213,591.2384 -172.46134,40.6826 -64.25763,165.13312 -91.98493,-151.44888 -176.90763,-10.08369 115.61153,-134.28315 -45.0773,-171.36518 163.43679,68.45733 149.04832,-95.82582 -14.60204,176.5921 z"
       inkscape:transform-center-x="1.7837489"
       inkscape:transform-center-y="-3.1326844"
       transform="matrix(-0.27118986,-0.00294485,0.00203604,-0.156199,236.37454,799.78929)" />
    <path
       sodipodi:type="star"
       style="fill:#241f1c;fill-opacity:0.94082839"
       id="path3639"
       sodipodi:sides="5"
       sodipodi:cx="-200"
       sodipodi:cy="252.3622"
       sodipodi:r1="100"
       sodipodi:r2="50"
       sodipodi:arg1="0.92729522"
       sodipodi:arg2="1.5556137"
       inkscape:flatsided="false"
       inkscape:rounded="0"
       inkscape:randomized="0"
       d="m -140,332.3622 -59.2409,-30.00576 -58.3026,31.79051 10.23073,-65.61373 -48.25107,-45.62527 L -230,212.3622 l 28.4818,-59.98848 30.28995,59.0961 65.85379,8.55035 -46.84362,47.06915 z"
       inkscape:transform-center-x="0.25440852"
       inkscape:transform-center-y="-3.9080663"
       transform="matrix(0.54227173,0,0,0.42937044,557.44805,609.27929)" />
    <path
       sodipodi:type="star"
       style="fill:#241f1c;fill-opacity:0.94082839"
       id="path3641"
       sodipodi:sides="5"
       sodipodi:cx="-394.81787"
       sodipodi:cy="357.06619"
       sodipodi:r1="128.06248"
       sodipodi:r2="64.031242"
       sodipodi:arg1="0.89605538"
       sodipodi:arg2="1.5243739"
       inkscape:flatsided="false"
       inkscape:rounded="0"
       inkscape:randomized="0"
       d="m -314.81787,457.06619 -77.02858,-36.03774 -73.35571,43.02396 10.47078,-84.39481 -63.58638,-56.47029 83.49989,-16.12112 34.05716,-77.92452 41.13498,74.43141 84.63487,8.31029 -58.07707,62.12226 z"
       inkscape:transform-center-x="0.64820577"
       inkscape:transform-center-y="-3.2875061"
       transform="matrix(0.35296919,0,0,0.31401831,770.41688,603.57569)" />
    <path
       sodipodi:type="star"
       style="fill:#241f1c;fill-opacity:0.94082839"
       id="path3643"
       sodipodi:sides="5"
       sodipodi:cx="872.11102"
       sodipodi:cy="519.47937"
       sodipodi:r1="44.721359"
       sodipodi:r2="22.36068"
       sodipodi:arg1="0.46364761"
       sodipodi:arg2="1.0919661"
       inkscape:flatsided="false"
       inkscape:rounded="0"
       inkscape:randomized="0"
       d="m 912.11102,539.47937 -29.69751,-0.15413 -16.96294,24.37673 -9.03045,-28.29164 -28.42548,-8.59989 24.11638,-17.33107 -0.60497,-29.69175 23.9352,17.58045 28.05158,-9.75062 -9.32361,28.19638 z"
       inkscape:transform-center-x="-46.136974"
       inkscape:transform-center-y="-15.222956"
       transform="matrix(0.89309964,0.44985891,-0.44985891,0.89309964,165.77694,-333.08991)" />
    <flowRoot
       xml:space="preserve"
       id="flowRoot3344"
       style="font-style:normal;font-weight:normal;font-size:40px;line-height:125%;font-family:sans-serif;letter-spacing:0px;word-spacing:0px;fill:#ffffff;fill-opacity:1;stroke:none;stroke-width:1px;stroke-linecap:butt;stroke-linejoin:miter;stroke-opacity:1"
       transform="matrix(2.5106292,0,0,9.0659134,-175.34074,-2663.6927)"><flowRegion
         id="flowRegion3346"><rect
           id="rect3348"
           width="577.8974"
           height="242.64282"
           x="112.98635"
           y="318.87704"
           style="fill:#ffffff" /></flowRegion><flowPara
         id="flowPara3350"
         style="font-style:normal;font-variant:normal;font-weight:normal;font-stretch:condensed;font-family:'Gill Sans Ultra Bold Condensed';-inkscape-font-specification:'Gill Sans Ultra Bold Condensed,  Condensed'"> route crime</flowPara></flowRoot>  </g>
</svg>
